<svg xmlns="http://www.w3.org/2000/svg" viewBox="0 0 1200 630" width="1200" height="630">
<rect width="1200" height="630" fill="#faf8f5"/>
<rect x="36.5" y="36.5" width="1127" height="557" fill="none" stroke="#e1d9cf" stroke-width="1"/>
<line x1="560" y1="412" x2="640" y2="412" stroke="#8c7f72" stroke-width="1"/>
<path fill="#8c7f72" d="M565.224 161.224V134.288L566.7360000000001 134.4V161.224Q566.7360000000001 164.192 567.884 165.76Q569.032 167.328 571.3280000000001 167.328Q571.44 167.328 571.44 167.664Q571.44 168.0 571.3280000000001 168.0Q570.096 168.0 568.836 167.94400000000002Q567.576 167.888 566.008 167.888Q564.44 167.888 562.9560000000001 167.94400000000002Q561.4720000000001 168.0 560.1840000000001 168.0Q560.072 168.0 560.072 167.664Q560.072 167.328 560.1840000000001 167.328Q562.648 167.328 563.936 165.76Q565.224 164.192 565.224 161.224ZM593.6160000000001 168.784Q593.6160000000001 168.952 593.364 168.98000000000002Q593.1120000000001 169.008 593.0 168.952L566.008 137.59199999999998Q564.048 135.296 562.62 134.48399999999998Q561.192 133.672 559.792 133.672Q559.6800000000001 133.672 559.6800000000001 133.336Q559.6800000000001 133.0 559.792 133.0Q560.912 133.0 562.032 133.05599999999998Q563.152 133.112 564.104 133.112Q565.784 133.112 567.156 133.05599999999998Q568.528 133.0 569.2560000000001 133.0Q569.984 133.0 570.32 133.644Q570.6560000000001 134.288 572.0 135.912L593.168 160.888ZM593.6160000000001 139.832V168.784L592.1600000000001 167.104V139.832Q592.1600000000001 136.864 590.984 135.268Q589.808 133.672 587.624 133.672Q587.5120000000001 133.672 587.5120000000001 133.336Q587.5120000000001 133.0 587.624 133.0Q588.8000000000001 133.0 590.0880000000001 133.084Q591.3760000000001 133.168 592.888 133.168Q594.344 133.168 595.744 133.084Q597.144 133.0 598.3760000000001 133.0Q598.488 133.0 598.488 133.336Q598.488 133.672 598.3760000000001 133.672Q596.024 133.672 594.82 135.268Q593.6160000000001 136.864 593.6160000000001 139.832ZM620.384 168.224Q618.63008 168.224 616.0596800000001 168.05599999999998Q613.48928 167.888 611.312 167.888Q609.3700338983051 167.888 607.575186440678 167.94400000000002Q605.7803389830509 168.0 604.368 168.0Q604.256 168.0 604.256 167.664Q604.256 167.328 604.368 167.328Q606.173023255814 167.328 607.1256744186046 167.048Q608.0783255813953 166.768 608.3791627906977 165.928Q608.6800000000001 165.088 608.6800000000001 163.464V137.536Q608.6800000000001 135.912 608.3795764705883 135.10000000000002Q608.0791529411765 134.288 607.1528470588236 133.98000000000002Q606.2265411764706 133.672 604.424 133.672Q604.312 133.672 604.312 133.336Q604.312 133.0 604.424 133.0Q605.8369230769231 133.0 607.603076923077 133.084Q609.3692307692307 133.168 611.312 133.168Q613.3230588235294 133.168 615.6388235294119 133.02800000000002Q617.9545882352942 132.888 619.6 132.888Q625.48 132.888 629.8418785425101 135.128Q634.2037570850202 137.368 636.6178785425102 141.232Q639.032 145.096 639.032 149.912Q639.032 154.112 637.5742654867256 157.5Q636.1165309734513 160.888 633.5036106194691 163.268Q630.8906902654868 165.648 627.5076460176992 166.93599999999998Q624.1246017699116 168.224 620.384 168.224ZM619.8240000000001 167.104Q623.6968205128205 167.104 626.6498461538462 165.2603448275862Q629.6028717948718 163.4166896551724 631.321435897436 159.83944827586208Q633.0400000000001 156.26220689655173 633.0400000000001 151.144Q633.0400000000001 146.38400000000001 631.4440000000001 142.464Q629.8480000000001 138.544 626.9943564356436 136.276Q624.1407128712872 134.008 620.16 134.008Q616.86 134.008 615.4300000000001 134.632Q614.0 135.256 614.0 137.648V162.848Q614.0 165.05481481481482 615.1158130841122 166.07940740740742Q616.2316261682244 167.104 619.8240000000001 167.104Z"/>
<path fill="#655b52" d="M495.14600537109374 243.28V262.0H497.7659809570313V243.28ZM510.667986328125 262.24Q512.5699819335938 262.24 513.9479794921875 261.4900014648438Q515.3259770507813 260.7400029296875 516.1899770507813 259.25000634765627L513.9580004882813 258.35000341796876Q513.427998046875 259.2320078125 512.6409953613281 259.668009765625Q511.8539926757813 260.10401171875 510.78199072265625 260.10401171875Q509.779986328125 260.10401171875 509.0719833984375 259.6660102539063Q508.36398046875 259.2280087890625 508.00497875976566 258.400005859375Q507.64597705078126 257.5720029296875 507.64597705078126 256.3879990234375Q507.66997705078126 255.18599658203124 508.03397900390627 254.36599462890624Q508.3979809570313 253.54599267578124 509.079984375 253.11999121093748Q509.76198779296874 252.69398974609376 510.7539916992188 252.69398974609376Q511.57799560546874 252.69398974609376 512.1899985351563 253.0599912109375Q512.8020014648438 253.42599267578126 513.1420034179688 254.06199560546875Q513.4820053710938 254.69799853515624 513.4820053710938 255.584001953125Q513.4820053710938 255.752001953125 513.4030056152344 256.004001953125Q513.324005859375 256.256001953125 513.2380063476562 256.39000146484375L514.0480048828125 255.28600146484376H506.5619897460938V257.0859956054687H516.25998046875Q516.2739799804688 256.9819975585938 516.2859799804687 256.7669987792969Q516.2979799804688 256.552 516.2979799804688 256.3560009765625Q516.2979799804688 254.59000146484374 515.6459809570313 253.32500122070311Q514.9939819335938 252.0600009765625 513.7599843749999 251.39000048828126Q512.5259868164062 250.72 510.78199072265625 250.72Q509.03799462890623 250.72 507.73899682617184 251.43300024414063Q506.4399990234375 252.14600048828126 505.728 253.43500073242188Q505.0160009765625 254.7240009765625 505.0160009765625 256.48Q505.0160009765625 258.2119990234375 505.71799951171874 259.5009992675781Q506.419998046875 260.78999951171875 507.6989948730469 261.5149997558594Q508.97799169921876 262.24 510.667986328125 262.24ZM523.4700043945313 243.28V262.0H526.019982421875V243.28ZM530.0859829101563 250.96 525.3139819335938 255.52 530.579982421875 262.0H533.7359560546876L528.4839550781251 255.52L533.2559560546875 250.96ZM541.3300092773438 260.7700094168527Q541.3300092773438 261.44200439453124 541.8240058593751 261.94300073242186Q542.3180024414063 262.4439970703125 543.0239517903647 262.4439970703125Q543.7619897460938 262.4439970703125 544.2439863281251 261.9413854041467Q544.7259829101563 261.4387737379808 544.7259829101563 260.7686248497596Q544.7259829101563 260.0680146484375 544.2439863281251 259.57901831054687Q543.7619897460938 259.09002197265625 543.0239517903647 259.09002197265625Q542.3180024414063 259.09002197265625 541.8240058593751 259.5787455927861Q541.3300092773438 260.06746921291597 541.3300092773438 260.7700094168527ZM573.4860043945313 243.28V262.0H576.1059799804688V243.28ZM564.3440009765625 256.48Q564.3440009765625 258.2839990234375 565.0880009765625 259.5799990234375Q565.8320009765625 260.8759990234375 567.0660014648438 261.5579995117188Q568.300001953125 262.24 569.7180043945312 262.24Q571.1100043945313 262.24 572.1630036621094 261.544Q573.2160029296875 260.848 573.8180024414063 259.552Q574.420001953125 258.256 574.420001953125 256.48Q574.420001953125 254.68 573.8180024414063 253.39600000000002Q573.2160029296875 252.112 572.1630036621094 251.416Q571.1100043945313 250.72 569.7180043945312 250.72Q568.300001953125 250.72 567.0660014648438 251.40200048828126Q565.8320009765625 252.0840009765625 565.0880009765625 253.36800097656248Q564.3440009765625 254.6520009765625 564.3440009765625 256.48ZM567.0299750976562 256.48Q567.0299750976562 255.375994140625 567.482977294922 254.58599072265628Q567.9359794921876 253.79598730468751 568.7019829101563 253.38198583984376Q569.467986328125 252.96798437500001 570.3499907226563 252.96798437500001Q571.1059936523438 252.96798437500001 571.8309968261719 253.37498608398437Q572.556 253.78198779296875 573.0210021972657 254.57199121093748Q573.4860043945313 255.36199462890625 573.4860043945313 256.48Q573.4860043945313 257.59800537109373 573.0210021972657 258.3880087890625Q572.556 259.17801220703126 571.8309968261719 259.58501391601567Q571.1059936523438 259.992015625 570.3499907226563 259.992015625Q569.467986328125 259.992015625 568.7019829101563 259.5780141601563Q567.9359794921876 259.1640126953125 567.482977294922 258.37400927734376Q567.0299750976562 257.584005859375 567.0299750976562 256.48ZM588.9319863281249 262.24Q590.8339819335937 262.24 592.2119794921874 261.4900014648438Q593.5899770507812 260.7400029296875 594.4539770507812 259.25000634765627L592.2220004882812 258.35000341796876Q591.6919980468749 259.2320078125 590.904995361328 259.668009765625Q590.1179926757812 260.10401171875 589.0459907226563 260.10401171875Q588.043986328125 260.10401171875 587.3359833984375 259.6660102539063Q586.6279804687499 259.2280087890625 586.2689787597656 258.400005859375Q585.9099770507812 257.5720029296875 585.9099770507812 256.3879990234375Q585.9339770507812 255.18599658203124 586.2979790039062 254.36599462890624Q586.6619809570312 253.54599267578124 587.343984375 253.11999121093748Q588.0259877929687 252.69398974609376 589.0179916992187 252.69398974609376Q589.8419956054687 252.69398974609376 590.4539985351562 253.0599912109375Q591.0660014648437 253.42599267578126 591.4060034179687 254.06199560546875Q591.7460053710937 254.69799853515624 591.7460053710937 255.584001953125Q591.7460053710937 255.752001953125 591.6670056152343 256.004001953125Q591.588005859375 256.256001953125 591.5020063476562 256.39000146484375L592.3120048828125 255.28600146484376H584.8259897460937V257.0859956054687H594.52398046875Q594.5379799804687 256.9819975585938 594.5499799804686 256.7669987792969Q594.5619799804687 256.552 594.5619799804687 256.3560009765625Q594.5619799804687 254.59000146484374 593.9099809570312 253.32500122070311Q593.2579819335937 252.0600009765625 592.0239843749999 251.39000048828126Q590.7899868164062 250.72 589.0459907226563 250.72Q587.3019946289062 250.72 586.0029968261717 251.43300024414063Q584.7039990234374 252.14600048828126 583.992 253.43500073242188Q583.2800009765624 254.7240009765625 583.2800009765624 256.48Q583.2800009765624 258.2119990234375 583.9819995117186 259.5009992675781Q584.683998046875 260.78999951171875 585.9629948730469 261.5149997558594Q587.2419916992187 262.24 588.9319863281249 262.24ZM608.9340043945313 255.28V262.0H611.6099780273438V254.984001953125Q611.6099780273438 252.992001953125 610.6249768066407 251.85600097656248Q609.6399755859376 250.72 607.7619799804688 250.72Q606.6259819335938 250.72 605.7979819335937 251.20699975585939Q604.9699819335938 251.69399951171874 604.4459809570313 252.66000097656251V250.96H601.8260053710939V262.0H604.4459809570313V255.28Q604.4459809570313 254.53399755859374 604.7449826660156 253.9799951171875Q605.043984375 253.42599267578126 605.6029870605469 253.11999121093748Q606.1619897460938 252.81398974609374 606.8899936523438 252.81398974609374Q607.9299975585939 252.81398974609374 608.4320009765626 253.4399921875Q608.9340043945313 254.06599462890625 608.9340043945313 255.28ZM618.18 250.96V253.2359833984375H624.4559736328124V250.96ZM620.035998046875 247.12V262.0H622.5859760742187V247.12ZM631.3780092773438 260.7700094168527Q631.3780092773438 261.44200439453124 631.8720058593751 261.94300073242186Q632.3660024414063 262.4439970703125 633.0719517903647 262.4439970703125Q633.8099897460938 262.4439970703125 634.2919863281251 261.9413854041467Q634.7739829101563 261.4387737379808 634.7739829101563 260.7686248497596Q634.7739829101563 260.0680146484375 634.2919863281251 259.57901831054687Q633.8099897460938 259.09002197265625 633.0719517903647 259.09002197265625Q632.3660024414063 259.09002197265625 631.8720058593751 259.5787455927861Q631.3780092773438 260.06746921291597 631.3780092773438 260.7700094168527ZM655.1420083007813 246.567994140625Q655.1420083007813 247.22198974609375 655.6290051269532 247.6809875488281Q656.1160019531251 248.1399853515625 656.7839970703126 248.1399853515625Q657.4619926757813 248.1399853515625 657.9369895019531 247.6809875488281Q658.4119863281251 247.22198974609375 658.4119863281251 246.567994140625Q658.4119863281251 245.88999853515625 657.9369895019531 245.44300073242186Q657.4619926757813 244.9960029296875 656.7839970703126 244.9960029296875Q656.1160019531251 244.9960029296875 655.6290051269532 245.44300073242186Q655.1420083007813 245.88999853515625 655.1420083007813 246.567994140625ZM655.4880087890625 250.96V262.0H658.051986328125V250.96ZM673.5180043945313 255.28V262.0H676.1939780273437V254.984001953125Q676.1939780273437 252.992001953125 675.2089768066406 251.85600097656248Q674.2239755859375 250.72 672.3459799804688 250.72Q671.2099819335938 250.72 670.3819819335938 251.20699975585939Q669.5539819335937 251.69399951171874 669.0299809570313 252.66000097656251V250.96H666.4100053710938V262.0H669.0299809570313V255.28Q669.0299809570313 254.53399755859374 669.3289826660157 253.9799951171875Q669.627984375 253.42599267578126 670.1869870605469 253.11999121093748Q670.7459897460938 252.81398974609374 671.4739936523438 252.81398974609374Q672.5139975585938 252.81398974609374 673.0160009765625 253.4399921875Q673.5180043945313 254.06599462890625 673.5180043945313 255.28ZM689.4240146484375 253.36197900390624 683.004 262.0H693.3199833984376V259.59802099609374H687.6179604492188L693.9259790039063 250.96H683.8499956054687V253.36197900390624ZM687.2459985351562 247.1560029296875Q687.2459985351562 247.80999853515624 687.7329953613281 248.26899633789063Q688.2199921875 248.72799414062501 688.8879873046875 248.72799414062501Q689.5659829101562 248.72799414062501 690.0409797363282 248.26899633789063Q690.5159765625 247.80999853515624 690.5159765625 247.1560029296875Q690.5159765625 246.47800732421874 690.0409797363282 246.03100952148435Q689.5659829101562 245.58401171875 688.8879873046875 245.58401171875Q688.2199921875 245.58401171875 687.7329953613281 246.03100952148435Q687.2459985351562 246.47800732421874 687.2459985351562 247.1560029296875ZM701.0980092773439 260.7700094168527Q701.0980092773439 261.44200439453124 701.5920058593751 261.94300073242186Q702.0860024414063 262.4439970703125 702.7919517903647 262.4439970703125Q703.5299897460939 262.4439970703125 704.0119863281251 261.9413854041467Q704.4939829101563 261.4387737379808 704.4939829101563 260.7686248497596Q704.4939829101563 260.0680146484375 704.0119863281251 259.57901831054687Q703.5299897460939 259.09002197265625 702.7919517903647 259.09002197265625Q702.0860024414063 259.09002197265625 701.5920058593751 259.5787455927861Q701.0980092773439 260.06746921291597 701.0980092773439 260.7700094168527Z"/>
<path fill="#2b2724" d="M158.96515087890626 356.368Q156.19551154296877 356.368 152.13655734375 356.092Q148.07760314453125 355.816 144.63943017578126 355.816Q141.5299183825477 355.816 138.6559756645591 355.908Q135.78203294657047 356.0 133.52056982421877 356.0Q133.33656982421877 356.0 133.33656982421877 355.448Q133.33656982421877 354.896 133.52056982421877 354.896Q136.66751797556324 354.896 138.3284072776617 354.43600000000004Q139.98929657976018 353.976 140.5137879383176 352.596Q141.038279296875 351.216 141.038279296875 348.548V305.952Q141.038279296875 303.284 140.51411156939338 301.95Q139.98994384191178 300.616 138.37376001551013 300.11Q136.75757618910848 299.604 133.61256982421875 299.604Q133.42856982421876 299.604 133.42856982421876 299.052Q133.42856982421876 298.5 133.61256982421875 298.5Q135.87448989633415 298.5 138.70188998647836 298.63800000000003Q141.5292900766226 298.776 144.63943017578126 298.776Q147.80299475815718 298.776 151.44588730755976 298.54600000000005Q155.08877985696233 298.31600000000003 157.67715087890628 298.31600000000003Q167.3853408203125 298.31600000000003 174.62883677864846 301.996Q181.87233273698445 305.676 185.8813116321641 312.024Q189.89029052734378 318.372 189.89029052734378 326.284Q189.89029052734378 333.184 187.47283860792314 338.75Q185.0553866885025 344.316 180.72221815369193 348.226Q176.38904961888136 352.136 170.77873667381084 354.252Q165.16842372874032 356.368 158.96515087890626 356.368ZM158.04515087890627 354.76894970703125Q164.93014071979454 354.76894970703125 170.17994547347183 351.7122537925983Q175.42975022714916 348.6555578781654 178.48496446904335 342.7246553576239Q181.5401787109375 336.7937528370824 181.5401787109375 328.308Q181.5401787109375 320.3916201171875 178.7013239746094 313.92752514648436Q175.86246923828128 307.46343017578124 170.76269822889273 303.689240234375Q165.66292721950418 299.9150502929688 158.54896093750003 299.9150502929688Q153.07590028599333 299.9150502929688 150.70424067034043 300.98149881417413Q148.33258105468752 302.0479473353795 148.33258105468752 306.136V347.536Q148.33258105468752 351.2864183666088 150.1934005069911 353.02768403682Q152.0542199592947 354.76894970703125 158.04515087890627 354.76894970703125ZM219.65884912109377 332.0143017578125 220.71027929687503 329.95525146484374H245.74743017578126L246.39143017578127 332.0143017578125ZM267.301720703125 354.896Q267.71353076171874 354.896 267.71353076171874 355.448Q267.71353076171874 356.0 267.301720703125 356.0Q264.58991064453124 356.0 261.76419555664063 355.81600000000003Q258.93848046875 355.632 256.2748603515625 355.632Q253.37905029296877 355.632 251.19733520507816 355.81600000000003Q249.01562011718752 356.0 246.35200000000003 356.0Q245.984 356.0 245.984 355.448Q245.984 354.896 246.35200000000003 354.896Q250.87751953125002 354.896 251.89827929687502 353.4261899414063Q252.91903906250002 351.9563798828125 250.94760888671877 347.8689497070313L231.04932958984378 306.64859228515627L234.00648046875003 302.21943017578127L216.02705029296877 343.8778994140625Q213.683240234375 349.4898994140625 215.8167653808594 352.1929497070313Q217.95029052734378 354.896 223.66743017578128 354.896Q224.12743017578126 354.896 224.12743017578126 355.448Q224.12743017578126 356.0 223.66743017578128 356.0Q220.90743017578126 356.0 218.60743017578125 355.81600000000003Q216.30743017578126 355.632 212.81143017578125 355.632Q209.41181005859377 355.632 207.39000000000001 355.81600000000003Q205.36818994140626 356.0 202.42856982421876 356.0Q202.06056982421876 356.0 202.06056982421876 355.448Q202.06056982421876 354.896 202.42856982421876 354.896Q204.91256982421876 354.896 206.7306647949219 353.88618994140626Q208.54875976562502 352.8763798828125 210.20256982421876 350.35075976562496Q211.85637988281252 347.82513964843747 213.91981005859378 343.0498994140625L233.50705029296876 297.8034301757813Q233.69105029296878 297.52743017578126 234.21676538085939 297.52743017578126Q234.74248046875002 297.52743017578126 234.83448046875003 297.8034301757813L256.9845810546875 343.396Q259.1005810546875 347.8163798828125 260.7565810546875 350.34637988281247Q262.4125810546875 352.8763798828125 263.9568659667969 353.88618994140626Q265.5011508789063 354.896 267.301720703125 354.896ZM287.4803798828125 345.446279296875 288.4003798828125 300.616 290.7836201171875 300.8 289.81981005859376 345.446279296875Q289.7278100585938 350.27408935546873 291.53933520507815 352.58504467773434Q293.3508603515625 354.896 297.6836201171875 354.896Q297.8676201171875 354.896 297.8676201171875 355.448Q297.8676201171875 356.0 297.6836201171875 356.0Q295.6596201171875 356.0 293.49762011718747 355.908Q291.3356201171875 355.816 288.7596201171875 355.816Q286.1485698242187 355.816 283.94494970703124 355.908Q281.74132958984376 356.0 279.85751953125 356.0Q279.67351953125 356.0 279.67351953125 355.448Q279.67351953125 354.896 279.85751953125 354.896Q283.72151953125 354.896 285.55494970703126 352.58504467773434Q287.3883798828125 350.27408935546873 287.4803798828125 345.446279296875ZM351.9373408203125 354.896Q352.16953076171876 354.896 352.16953076171876 355.448Q352.16953076171876 356.0 351.9373408203125 356.0Q349.6855307617187 356.0 346.79191064453124 355.908Q343.89829052734376 355.816 340.77467041015626 355.816Q337.699240234375 355.816 335.0378100585938 355.908Q332.3763798828125 356.0 330.22094970703125 356.0Q330.0369497070312 356.0 330.0369497070312 355.448Q330.0369497070312 354.896 330.22094970703125 354.896Q334.7771396484375 354.896 336.04323461914066 353.70000000000005Q337.30932958984374 352.504 337.08151953125 348.548L335.2458994140625 305.2510615234375L338.7638100585938 300.01143017578124L315.01905029296876 355.356Q314.9270502929688 355.724 314.28305029296877 355.724Q313.63905029296876 355.724 313.45505029296874 355.356L289.5306591796875 306.136Q286.2712290039062 299.604 280.50151953125 299.604Q280.31751953125 299.604 280.31751953125 299.052Q280.31751953125 298.5 280.50151953125 298.5Q282.10494970703127 298.5 283.9602849121094 298.592Q285.8156201171875 298.68399999999997 287.007240234375 298.68399999999997Q288.7421005859375 298.68399999999997 290.15934082031254 298.592Q291.5765810546875 298.5 292.35201123046875 298.5Q293.64001123046876 298.5 294.3541062011719 299.3499050292969Q295.068201171875 300.19981005859376 296.5840112304688 303.284L317.4285810546875 345.73540771484375L314.0508603515625 351.6146591796875L336.19218994140624 300.8Q336.696 299.6083798828125 337.38818994140627 299.05418994140626Q338.0803798828125 298.5 338.95218994140623 298.5Q339.6356201171875 298.5 340.5775251464844 298.592Q341.5194301757813 298.68399999999997 342.851240234375 298.68399999999997Q345.46667041015627 298.68399999999997 347.18400561523435 298.592Q348.9013408203125 298.5 350.7369609375 298.5Q350.96477099609376 298.5 350.96477099609376 299.052Q350.96477099609376 299.604 350.7369609375 299.604Q346.4085810546875 299.604 344.3144860839844 301.0453352050781Q342.22039111328127 302.48667041015625 342.448201171875 306.2148603515625L344.41963134765626 348.548Q344.51163134765625 351.216 345.04172631835934 352.596Q345.5718212890625 353.976 347.186201171875 354.43600000000004Q348.8005810546875 354.896 351.9373408203125 354.896ZM382.38058105468747 348.548Q382.38058105468747 351.216 382.9056976096413 352.596Q383.4308141645952 353.976 385.04992354236947 354.43600000000004Q386.6690329201438 354.896 389.81973224986683 354.896Q390.08229052734373 354.896 390.08229052734373 355.448Q390.08229052734373 356.0 389.7997190185547 356.0Q387.5391469482422 356.0 384.7605271118164 355.908Q381.9819072753906 355.816 378.59104916992186 355.816Q375.48276257324216 355.816 372.6099522338867 355.908Q369.73714189453125 356.0 367.47656982421876 356.0Q367.20056982421875 356.0 367.20056982421875 355.448Q367.20056982421875 354.896 367.47656982421876 354.896Q370.62351797556323 354.896 372.28440727766167 354.43600000000004Q373.94529657976017 353.976 374.4697879383176 352.596Q374.994279296875 351.216 374.994279296875 348.548V305.952Q374.994279296875 303.284 374.4688606807409 301.95Q373.94344206460676 300.616 372.27961644684865 300.11Q370.6157908290906 299.604 367.46327913228583 299.604Q367.20056982421875 299.604 367.20056982421875 299.052Q367.20056982421875 298.5 367.4831413330078 298.5Q369.7437134033203 298.5 372.6165237426758 298.63800000000003Q375.48933408203123 298.776 378.59762067871094 298.776Q381.9884787841797 298.776 384.8141938720703 298.63800000000003Q387.6399089599609 298.5 389.8062905273437 298.5Q390.08229052734373 298.5 390.08229052734373 299.052Q390.08229052734373 299.604 389.8062905273437 299.604Q386.661284162454 299.604 385.04510033605237 300.15599999999995Q383.4289165096507 300.70799999999997 382.9047487821691 302.08799999999997Q382.38058105468747 303.468 382.38058105468747 306.136ZM420.4948491210938 332.0143017578125 421.546279296875 329.95525146484374H446.5834301757813L447.22743017578125 332.0143017578125ZM468.137720703125 354.896Q468.54953076171876 354.896 468.54953076171876 355.448Q468.54953076171876 356.0 468.137720703125 356.0Q465.42591064453126 356.0 462.60019555664064 355.81600000000003Q459.77448046875 355.632 457.1108603515625 355.632Q454.2150502929688 355.632 452.0333352050782 355.81600000000003Q449.8516201171875 356.0 447.18800000000005 356.0Q446.82000000000005 356.0 446.82000000000005 355.448Q446.82000000000005 354.896 447.18800000000005 354.896Q451.71351953125003 354.896 452.734279296875 353.4261899414063Q453.75503906250003 351.9563798828125 451.78360888671875 347.8689497070313L431.88532958984376 306.64859228515627L434.84248046875 302.21943017578127L416.8630502929688 343.8778994140625Q414.51924023437505 349.4898994140625 416.6527653808594 352.1929497070313Q418.7862905273438 354.896 424.50343017578126 354.896Q424.9634301757813 354.896 424.9634301757813 355.448Q424.9634301757813 356.0 424.50343017578126 356.0Q421.74343017578127 356.0 419.44343017578126 355.81600000000003Q417.1434301757813 355.632 413.64743017578127 355.632Q410.24781005859376 355.632 408.226 355.81600000000003Q406.2041899414063 356.0 403.26456982421877 356.0Q402.8965698242188 356.0 402.8965698242188 355.448Q402.8965698242188 354.896 403.26456982421877 354.896Q405.7485698242188 354.896 407.5666647949219 353.88618994140626Q409.384759765625 352.8763798828125 411.03856982421877 350.35075976562496Q412.69237988281253 347.82513964843747 414.7558100585938 343.0498994140625L434.34305029296877 297.8034301757813Q434.5270502929688 297.52743017578126 435.05276538085946 297.52743017578126Q435.57848046875006 297.52743017578126 435.67048046875004 297.8034301757813L457.8205810546875 343.396Q459.9365810546875 347.8163798828125 461.5925810546875 350.34637988281247Q463.2485810546875 352.8763798828125 464.7928659667969 353.88618994140626Q466.3371508789063 354.896 468.137720703125 354.896ZM488.7150502929688 345.446279296875V300.616L491.00629052734377 300.8V345.446279296875Q491.00629052734377 350.27408935546873 492.77181567382814 352.58504467773434Q494.5373408203125 354.896 498.35753076171875 354.896Q498.589720703125 354.896 498.589720703125 355.448Q498.589720703125 356.0 498.35753076171875 356.0Q496.4299106445313 356.0 494.43219555664064 355.908Q492.43448046875 355.816 489.9548603515625 355.816Q487.52343017578124 355.816 485.25409497070314 355.908Q482.98475976562503 356.0 480.9651396484375 356.0Q480.78113964843755 356.0 480.78113964843755 355.448Q480.78113964843755 354.896 480.9651396484375 354.896Q485.0131396484375 354.896 486.86409497070315 352.58504467773434Q488.7150502929688 350.27408935546873 488.7150502929688 345.446279296875ZM535.21448046875 357.1916201171875Q535.21448046875 357.41943017578126 534.7763854980469 357.46543017578125Q534.3382905273438 357.51143017578124 534.1542905273437 357.41943017578126L490.87046923828126 306.044Q487.6986591796875 302.272 485.3044692382813 300.938Q482.910279296875 299.604 480.65846923828127 299.604Q480.426279296875 299.604 480.426279296875 299.052Q480.426279296875 298.5 480.65846923828127 298.5Q482.4020893554688 298.5 484.1698044433594 298.592Q485.93751953125 298.68399999999997 487.4051396484375 298.68399999999997Q489.5868603515625 298.68399999999997 491.43124584960935 298.592Q493.27563134765626 298.5 494.230681640625 298.5Q495.426681640625 298.5 495.9304916992188 299.558Q496.43430175781253 300.616 498.6423017578125 303.284L534.47848046875 346.48454736328125ZM535.21448046875 309.145720703125V357.1916201171875L532.9670502929688 354.38343017578126V309.145720703125Q532.9670502929688 304.31791064453125 531.2037150878907 301.9609553222656Q529.4403798828125 299.604 525.756 299.604Q525.572 299.604 525.572 299.052Q525.572 298.5 525.756 298.5Q527.6398100585938 298.5 529.6835251464844 298.63800000000003Q531.727240234375 298.776 534.1148603515625 298.776Q536.41048046875 298.776 538.6381955566407 298.63800000000003Q540.8659106445313 298.5 542.7935307617188 298.5Q543.025720703125 298.5 543.025720703125 299.052Q543.025720703125 299.604 542.7935307617188 299.604Q538.8813408203125 299.604 537.0479106445313 301.9609553222656Q535.21448046875 304.31791064453125 535.21448046875 309.145720703125ZM595.7110502929687 345.446279296875V300.616L598.0022905273438 300.8V345.446279296875Q598.0022905273438 350.27408935546873 599.7678156738282 352.58504467773434Q601.5333408203124 354.896 605.3535307617187 354.896Q605.585720703125 354.896 605.585720703125 355.448Q605.585720703125 356.0 605.3535307617187 356.0Q603.4259106445312 356.0 601.4281955566406 355.908Q599.43048046875 355.816 596.9508603515625 355.816Q594.5194301757813 355.816 592.2500949707031 355.908Q589.980759765625 356.0 587.9611396484376 356.0Q587.7771396484375 356.0 587.7771396484375 355.448Q587.7771396484375 354.896 587.9611396484376 354.896Q592.0091396484376 354.896 593.8600949707031 352.58504467773434Q595.7110502929687 350.27408935546873 595.7110502929687 345.446279296875ZM642.21048046875 357.1916201171875Q642.21048046875 357.41943017578126 641.7723854980469 357.46543017578125Q641.3342905273438 357.51143017578124 641.1502905273437 357.41943017578126L597.8664692382813 306.044Q594.6946591796875 302.272 592.3004692382813 300.938Q589.906279296875 299.604 587.6544692382812 299.604Q587.422279296875 299.604 587.422279296875 299.052Q587.422279296875 298.5 587.6544692382812 298.5Q589.3980893554688 298.5 591.1658044433593 298.592Q592.93351953125 298.68399999999997 594.4011396484375 298.68399999999997Q596.5828603515625 298.68399999999997 598.4272458496093 298.592Q600.2716313476562 298.5 601.226681640625 298.5Q602.422681640625 298.5 602.9264916992188 299.558Q603.4303017578125 300.616 605.6383017578125 303.284L641.47448046875 346.48454736328125ZM642.21048046875 309.145720703125V357.1916201171875L639.9630502929688 354.38343017578126V309.145720703125Q639.9630502929688 304.31791064453125 638.1997150878906 301.9609553222656Q636.4363798828125 299.604 632.752 299.604Q632.568 299.604 632.568 299.052Q632.568 298.5 632.752 298.5Q634.6358100585937 298.5 636.6795251464844 298.63800000000003Q638.723240234375 298.776 641.1108603515625 298.776Q643.40648046875 298.776 645.6341955566406 298.63800000000003Q647.8619106445312 298.5 649.7895307617188 298.5Q650.021720703125 298.5 650.021720703125 299.052Q650.021720703125 299.604 649.7895307617188 299.604Q645.8773408203125 299.604 644.0439106445313 301.9609553222656Q642.21048046875 304.31791064453125 642.21048046875 309.145720703125ZM694.392 357.104Q687.768 357.104 682.386 354.758Q677.004 352.412 673.186 348.272Q669.368 344.132 667.298 338.75Q665.2280000000001 333.368 665.2280000000001 327.296Q665.2280000000001 319.844 668.126 314.23199999999997Q671.024 308.62 675.808 304.894Q680.592 301.168 686.296 299.328Q692.0 297.488 697.6120000000001 297.488Q704.4200000000001 297.488 709.802 299.92600000000004Q715.184 302.36400000000003 718.956 306.504Q722.7280000000001 310.644 724.706 315.88800000000003Q726.684 321.132 726.684 326.652Q726.684 333.092 724.108 338.61199999999997Q721.532 344.132 717.07 348.272Q712.6080000000001 352.412 706.7660000000001 354.758Q700.924 357.104 694.392 357.104ZM697.5243798828126 355.0405698242188Q703.4737094726563 355.0405698242188 708.1350390625 352.07247485351564Q712.7963686523437 349.1043798828125 715.5651284179687 343.3302849121094Q718.3338881835938 337.5561899414063 718.3338881835938 329.27181005859376Q718.3338881835938 320.6676201171875 715.3570334472656 314.0195251464844Q712.3801787109376 307.37143017578126 706.8667541503906 303.5534301757813Q701.3533295898437 299.73543017578123 693.7918100585938 299.73543017578123Q684.1493408203125 299.73543017578123 678.8637263183593 306.22581005859377Q673.5781118164062 312.71618994140624 673.5781118164062 323.9883798828125Q673.5781118164062 330.608 675.2844916992187 336.26599999999996Q676.9908715820313 341.924 680.2196313476563 346.1800949707031Q683.4483911132813 350.43618994140627 687.8775307617188 352.7383798828125Q692.3066704101562 355.0405698242188 697.5243798828126 355.0405698242188ZM782.7163798828125 325.87656982421873 771.0236201171874 355.908Q770.9316201171874 356.276 770.0576201171875 356.276Q769.1836201171875 356.276 768.9996201171874 355.908L745.9163798828124 306.136Q744.816759765625 303.5643798828125 743.7784748535156 302.1383798828125Q742.7401899414062 300.7123798828125 741.4938100585937 300.15818994140625Q740.2474301757812 299.604 738.359240234375 299.604Q738.0832402343749 299.604 738.0832402343749 299.052Q738.0832402343749 298.5 738.359240234375 298.5Q739.6034301757812 298.5 740.6022849121093 298.592Q741.6011396484374 298.68399999999997 742.8234245605468 298.73Q744.0457094726562 298.776 745.6885698242187 298.776Q748.74648046875 298.776 750.8778156738281 298.73Q753.0091508789062 298.68399999999997 754.5490559082031 298.592Q756.0889609374999 298.5 757.4251508789062 298.5Q757.7011508789062 298.5 757.7011508789062 299.052Q757.7011508789062 299.604 757.4251508789062 299.604Q753.7495307617187 299.604 752.7462961425781 300.9336201171875Q751.7430615234374 302.263240234375 753.6181118164062 306.42515087890627L773.1221005859375 348.11864794921877L769.6348603515625 353.1041787109375L781.2049497070312 323.67732958984374ZM823.770279296875 298.5Q823.9542792968749 298.5 823.9542792968749 299.052Q823.9542792968749 299.604 823.770279296875 299.604Q820.6028491210936 299.604 818.1057038574218 301.53819555664063Q815.60855859375 303.4723911132812 813.7729384765624 308.0110615234375L795.0093295898437 355.908Q794.9173295898437 356.276 794.0433295898438 356.276Q793.1693295898438 356.276 792.9853295898437 355.908L769.9502792968749 306.136Q768.4300893554687 302.77143017578123 766.8157094726562 301.18771508789064Q765.2013295898437 299.604 762.8838100585937 299.604Q762.6078100585937 299.604 762.6078100585937 299.052Q762.6078100585937 298.5 762.8838100585937 298.5Q763.9483798828124 298.5 764.9691396484375 298.592Q765.9898994140625 298.68399999999997 767.1004692382812 298.73Q768.2110390624999 298.776 769.7662792968749 298.776Q773.411240234375 298.776 775.3125754394531 298.63800000000003Q777.2139106445312 298.5 778.637720703125 298.5Q778.9137207031249 298.5 778.9137207031249 299.052Q778.9137207031249 299.604 778.637720703125 299.604Q775.8733408203125 299.604 775.7309609375 300.8153352050781Q775.5885810546874 302.02667041015627 777.6038212890625 306.42515087890627L797.2436201171874 348.11864794921877L793.7125698242187 353.1041787109375L811.4422680664062 307.94973193359374Q812.9975083007812 304.01563134765627 811.661318359375 301.8098156738281Q810.3251284179687 299.604 805.8434189453125 299.604Q805.5674189453125 299.604 805.5674189453125 299.052Q805.5674189453125 298.5 805.8434189453125 298.5Q808.1390390624999 298.5 810.2287541503906 298.63800000000003Q812.3184692382812 298.776 815.582279296875 298.776Q818.158279296875 298.776 819.8142792968749 298.63800000000003Q821.470279296875 298.5 823.770279296875 298.5ZM781.7087597656249 323.67732958984374 787.999798828125 307.5028715820313Q789.6908491210937 303.38915087890626 789.2220893554687 301.4965754394531Q788.7533295898437 299.604 785.9801899414063 299.604Q785.6603798828124 299.604 785.6603798828124 299.052Q785.6603798828124 298.5 785.9801899414063 298.5Q786.8563798828125 298.5 787.5069497070313 298.592Q788.1575195312499 298.68399999999997 789.0797094726562 298.73Q790.0018994140624 298.776 791.9163798828124 298.776Q794.4485698242187 298.776 795.9928547363281 298.63800000000003Q797.5371396484375 298.5 799.7013295898437 298.5Q799.8853295898436 298.5 799.8853295898436 299.052Q799.8853295898436 299.604 799.7013295898437 299.604Q796.7617094726562 299.604 794.3959943847656 301.44838549804683Q792.0302792968749 303.29277099609374 790.2428491210937 308.0110615234375L783.2201899414063 325.87656982421873ZM841.5788491210938 332.0143017578125 842.6302792968751 329.95525146484374H867.6674301757813L868.3114301757813 332.0143017578125ZM889.221720703125 354.896Q889.6335307617188 354.896 889.6335307617188 355.448Q889.6335307617188 356.0 889.221720703125 356.0Q886.5099106445313 356.0 883.6841955566406 355.81600000000003Q880.85848046875 355.632 878.1948603515625 355.632Q875.2990502929688 355.632 873.1173352050782 355.81600000000003Q870.9356201171876 356.0 868.272 356.0Q867.904 356.0 867.904 355.448Q867.904 354.896 868.272 354.896Q872.79751953125 354.896 873.8182792968751 353.4261899414063Q874.8390390625 351.9563798828125 872.8676088867188 347.8689497070313L852.9693295898438 306.64859228515627L855.92648046875 302.21943017578127L837.9470502929688 343.8778994140625Q835.603240234375 349.4898994140625 837.7367653808594 352.1929497070313Q839.8702905273437 354.896 845.5874301757813 354.896Q846.0474301757813 354.896 846.0474301757813 355.448Q846.0474301757813 356.0 845.5874301757813 356.0Q842.8274301757813 356.0 840.5274301757813 355.81600000000003Q838.2274301757813 355.632 834.7314301757813 355.632Q831.3318100585938 355.632 829.31 355.81600000000003Q827.2881899414062 356.0 824.3485698242188 356.0Q823.9805698242188 356.0 823.9805698242188 355.448Q823.9805698242188 354.896 824.3485698242188 354.896Q826.8325698242188 354.896 828.6506647949219 353.88618994140626Q830.468759765625 352.8763798828125 832.1225698242188 350.35075976562496Q833.7763798828125 347.82513964843747 835.8398100585938 343.0498994140625L855.4270502929688 297.8034301757813Q855.6110502929688 297.52743017578126 856.1367653808594 297.52743017578126Q856.66248046875 297.52743017578126 856.75448046875 297.8034301757813L878.9045810546876 343.396Q881.0205810546876 347.8163798828125 882.6765810546876 350.34637988281247Q884.3325810546876 352.8763798828125 885.8768659667969 353.88618994140626Q887.4211508789062 354.896 889.221720703125 354.896ZM935.6861005859375 297.488Q939.2434301757813 297.488 942.2334301757812 297.8340949707031Q945.2234301757812 298.18018994140624 947.8213352050782 298.8745698242187Q950.419240234375 299.56894970703127 952.8243798828125 300.81751953125Q953.5121899414063 301.14170947265626 953.694 301.41551953124997Q953.8758100585937 301.68932958984374 953.9678100585938 302.84151953125L955.0718100585938 314.35905029296873Q955.0718100585938 314.5868603515625 954.6337150878907 314.70295532226567Q954.1956201171876 314.81905029296877 953.9678100585938 314.4510502929688Q951.7203798828125 306.8588603515625 947.0524748535156 302.9510502929687Q942.3845698242188 299.043240234375 935.0596201171875 299.043240234375Q927.7215307617188 299.043240234375 922.1642961425782 302.4253352050781Q916.6070615234376 305.80743017578123 913.4943967285157 312.04152514648433Q910.3817319335938 318.2756201171875 910.3817319335938 326.78343017578123Q910.3817319335938 332.94305029296873 912.3203017578126 338.2111452636719Q914.2588715820312 343.479240234375 917.7417263183594 347.3717150878906Q921.2245810546875 351.26418994140624 925.7654357910156 353.40647485351565Q930.3062905273438 355.548759765625 935.5108603515625 355.548759765625Q942.7963798828125 355.548759765625 947.3788547363281 351.8884748535156Q951.9613295898438 348.22818994140624 954.7914301757813 340.68856982421875Q954.8834301757813 340.41256982421874 955.3675251464845 340.5045698242187Q955.8516201171875 340.59656982421876 955.8516201171875 340.78056982421873L954.7563798828126 351.3386704101562Q954.6643798828126 352.44267041015627 954.4803798828125 352.7186704101563Q954.2963798828125 352.99467041015623 953.656759765625 353.3626704101562Q949.0041899414063 355.5356201171875 944.7283798828125 356.3439050292969Q940.4525698242188 357.1521899414063 935.5546704101563 357.1521899414063Q925.7150502929688 357.1521899414063 918.1513352050781 353.37800000000004Q910.5876201171875 349.60381005859375 906.2658100585938 342.7936201171875Q901.9440000000001 335.9834301757812 901.9440000000001 327.0988603515625Q901.9440000000001 320.4748603515625 904.4718100585937 315.02714526367185Q906.9996201171875 309.5794301757812 911.5733352050781 305.6935251464844Q916.1470502929687 301.8076201171875 922.3066704101562 299.6478100585938Q928.4662905273437 297.488 935.6861005859375 297.488ZM980.2622792968749 348.548V305.952Q980.2622792968749 303.284 979.7540893554688 301.95Q979.2458994140625 300.616 977.619544781901 300.11Q975.9931901497396 299.604 972.8283919466145 299.604Q972.6525698242187 299.604 972.6525698242187 299.052Q972.6525698242187 298.5 972.8410062858485 298.5Q975.1022438254054 298.5 977.9287907498516 298.63800000000003Q980.7553376742978 298.776 983.8645392911886 298.776Q987.2563956005241 298.776 990.0358334095629 298.63800000000003Q992.8152712186017 298.5 994.9822905273437 298.5Q995.2582905273437 298.5 995.2582905273437 299.052Q995.2582905273437 299.604 994.9822905273437 299.604Q991.837284162454 299.604 990.2647809800092 300.15599999999995Q988.6922777975643 300.70799999999997 988.1244294261259 302.08799999999997Q987.5565810546874 303.468 987.5565810546874 306.136V348.548Q987.5565810546874 351.216 988.080748782169 352.596Q988.6049165096507 353.976 990.2211003360524 354.43600000000004Q991.837284162454 354.896 994.9822905273437 354.896Q995.3021005859374 354.896 995.3021005859374 355.448Q995.3021005859374 356.0 994.9822905273437 356.0Q992.7212766749277 356.0 989.9892182699251 355.908Q987.2571598649225 355.816 983.8656390862985 355.816Q980.7567450392265 355.816 977.8833732684479 355.908Q975.0100014976694 356.0 972.7489876452534 356.0Q972.5605698242186 356.0 972.5605698242186 355.448Q972.5605698242186 354.896 972.73560867587 354.896Q975.886308005593 354.896 977.5491770962801 354.43600000000004Q979.2120461869673 353.976 979.7371627419211 352.596Q980.2622792968749 351.216 980.2622792968749 348.548ZM1003.7485698242187 342.66 989.7339106445312 324.6981005859375 995.2101118164062 319.92284912109375 1008.861162109375 337.6043798828125Q1012.7821118164062 342.944759765625 1015.5705866699218 346.2348547363281Q1018.3590615234375 349.5249497070312 1020.2051938085938 351.36641060384113Q1022.0513260937499 353.20787150065104 1023.5018586035155 353.91612569173174Q1024.9523911132812 354.6243798828125 1026.281841045673 354.7601899414062Q1027.6112909780647 354.896 1029.295260892428 354.896Q1029.5611508789061 354.896 1029.5611508789061 355.448Q1029.5611508789061 356.0 1029.2878890075683 356.0Q1025.1889609375 356.0 1022.7049609375 356.0Q1020.2209609375 356.0 1018.9811508789062 356.0Q1017.9779106445312 356.0 1017.3185754394531 356.06790502929687Q1016.6592402343749 356.13581005859373 1016.0634301757811 356.13581005859373Q1014.7754301757811 356.13581005859373 1013.9456884452624 355.67581005859375Q1013.1159467147436 355.2158100585938 1012.042163298778 353.8358100585938Q1010.9683798828124 352.4558100585937 1009.0385698242187 349.7878100585938Q1007.108759765625 347.11981005859377 1003.7485698242187 342.66ZM982.7638100585937 330.42839111328124 1006.5436201171874 306.60915087890623Q1009.9038100585936 303.11315087890625 1009.2882849121092 301.35857543945315Q1008.672759765625 299.604 1003.9325698242187 299.604Q1003.7485698242187 299.604 1003.7485698242187 299.052Q1003.7485698242187 298.5 1003.9325698242187 298.5Q1006.3175462309738 298.5 1008.7025226377289 298.63800000000003Q1011.087499044484 298.776 1014.9988603515625 298.776Q1018.837662888833 298.776 1021.1015720774799 298.63800000000003Q1023.3654812661266 298.5 1025.4325287861955 298.5Q1025.7278212890624 298.5 1025.7278212890624 299.052Q1025.7278212890624 299.604 1025.4518212890625 299.604Q1021.8331508789062 299.604 1017.2901005859374 301.4067653808594Q1012.7470502929687 303.2095307617187 1008.7034301757812 307.16115087890626L985.1514301757812 330.51601123046873ZM1057.8445810546875 348.548Q1057.8445810546875 351.216 1058.3696976096412 352.596Q1058.8948141645951 353.976 1060.5139235423694 354.43600000000004Q1062.133032920144 354.896 1065.283732249867 354.896Q1065.546290527344 354.896 1065.546290527344 355.448Q1065.546290527344 356.0 1065.2637190185546 356.0Q1063.0031469482421 356.0 1060.2245271118163 355.908Q1057.4459072753907 355.816 1054.0550491699219 355.816Q1050.9467625732423 355.816 1048.0739522338868 355.908Q1045.2011418945312 356.0 1042.9405698242188 356.0Q1042.6645698242187 356.0 1042.6645698242187 355.448Q1042.6645698242187 354.896 1042.9405698242188 354.896Q1046.0875179755633 354.896 1047.7484072776617 354.43600000000004Q1049.4092965797602 353.976 1049.9337879383174 352.596Q1050.458279296875 351.216 1050.458279296875 348.548V305.952Q1050.458279296875 303.284 1049.9328606807408 301.95Q1049.4074420646068 300.616 1047.7436164468486 300.11Q1046.0797908290906 299.604 1042.9272791322858 299.604Q1042.6645698242187 299.604 1042.6645698242187 299.052Q1042.6645698242187 298.5 1042.947141333008 298.5Q1045.2077134033204 298.5 1048.0805237426757 298.63800000000003Q1050.9533340820312 298.776 1054.061620678711 298.776Q1057.4524787841797 298.776 1060.2781938720705 298.63800000000003Q1063.103908959961 298.5 1065.2702905273438 298.5Q1065.546290527344 298.5 1065.546290527344 299.052Q1065.546290527344 299.604 1065.2702905273438 299.604Q1062.1252841624541 299.604 1060.5091003360526 300.15599999999995Q1058.8929165096508 300.70799999999997 1058.3687487821692 302.08799999999997Q1057.8445810546875 303.468 1057.8445810546875 306.136Z"/>
<path fill="#655b52" d="M292.216001953125 449.2V466.0H301.72397167968745V463.45002197265626H295.0679736328125V449.2ZM311.2779799804687 466.0H319.7499799804687V463.50602001953126H311.2779799804687ZM311.2779799804687 451.6939799804687H319.7499799804687V449.2H311.2779799804687ZM311.2779799804687 458.231986328125H319.2699799804687V455.76600537109374H311.2779799804687ZM309.52000195312496 449.2V466.0H312.3019760742187V449.2ZM331.09397021484375 457.6Q331.09397021484375 455.799994140625 331.89997265625004 454.4709890136719Q332.7059750976563 453.1419838867188 334.00997900390627 452.40698022460936Q335.31398291015626 451.6719765625 336.8439873046875 451.6719765625Q338.0439873046875 451.6719765625 339.0049885253907 451.9839765625Q339.9659897460938 452.2959765625 340.7469909667969 452.83897729492185Q341.5279921875 453.38197802734373 342.0899926757813 454.05598046875V450.68200439453125Q341.04799218750003 449.816001953125 339.8209914550781 449.360001953125Q338.59399072265626 448.904001953125 336.74599072265624 448.904001953125Q334.895994140625 448.904001953125 333.3019965820313 449.5330021972656Q331.7079990234375 450.16200244140623 330.5210002441406 451.3330021972656Q329.33400146484377 452.504001953125 328.6790017089844 454.09500170898434Q328.024001953125 455.68600146484374 328.024001953125 457.6Q328.024001953125 459.51399853515625 328.6790017089844 461.1049982910156Q329.33400146484377 462.695998046875 330.5210002441406 463.8669978027344Q331.7079990234375 465.03799755859376 333.3019965820313 465.6669978027344Q334.895994140625 466.295998046875 336.74599072265624 466.295998046875Q338.59399072265626 466.295998046875 339.8209914550781 465.839998046875Q341.04799218750003 465.383998046875 342.0899926757813 464.51799560546874V461.14401953125Q341.5279921875 461.81802197265625 340.7469909667969 462.3610227050781Q339.9659897460938 462.9040234375 339.0049885253907 463.2160234375Q338.0439873046875 463.5280234375 336.8439873046875 463.5280234375Q335.31398291015626 463.5280234375 334.00997900390627 462.79301977539063Q332.7059750976563 462.05801611328127 331.89997265625004 460.71701098632815Q331.09397021484375 459.376005859375 331.09397021484375 457.6ZM350.15399267578124 451.80597607421873H357.8340161132812L349.408001953125 466.0H361.8539780273437V463.45002197265626H354.0059604492187L362.48797265625 449.2H350.15399267578124ZM372.2859799804687 466.0H380.75797998046875V463.50602001953126H372.2859799804687ZM372.2859799804687 451.6939799804687H380.75797998046875V449.2H372.2859799804687ZM372.2859799804687 458.231986328125H380.27797998046873V455.76600537109374H372.2859799804687ZM370.528001953125 449.2V466.0H373.30997607421875V449.2ZM402.264017578125 449.2V460.48604248046877L389.992001953125 448.36V466.0H392.77397607421875V454.7139575195313L405.04599169921875 466.84V449.2ZM414.54400195312496 449.2V466.0H417.42397265624993V449.2ZM428.6619799804687 466.0H437.1339799804687V463.50602001953126H428.6619799804687ZM428.6619799804687 451.6939799804687H437.1339799804687V449.2H428.6619799804687ZM428.6619799804687 458.231986328125H436.6539799804687V455.76600537109374H428.6619799804687ZM426.904001953125 449.2V466.0H429.68597607421873V449.2ZM461.3819721679687 457.6Q461.3819721679687 455.871994140625 462.11897534179684 454.5239892578125Q462.85597851562494 453.175984375 464.14198388671866 452.3959814453125Q465.42798925781244 451.615978515625 467.0979946289062 451.615978515625Q468.7919999999999 451.615978515625 470.07300512695303 452.3959814453125Q471.3540102539062 453.175984375 472.0770139160156 454.5239892578125Q472.80001757812494 455.871994140625 472.80001757812494 457.6Q472.80001757812494 459.328005859375 472.0700141601562 460.6760107421875Q471.3400107421874 462.024015625 470.0590056152343 462.8040185546875Q468.7780004882812 463.584021484375 467.0979946289062 463.584021484375Q465.42798925781244 463.584021484375 464.14198388671866 462.8040185546875Q462.85597851562494 462.024015625 462.11897534179684 460.6760107421875Q461.3819721679687 459.328005859375 461.3819721679687 457.6ZM458.3680019531249 457.6Q458.3680019531249 459.46599853515625 459.0110017089843 461.0709978027344Q459.6540014648437 462.6759970703125 460.83400048828116 463.86099633789064Q462.0139995117187 465.04599560546876 463.60899829101555 465.70599560546873Q465.2039970703124 466.36599560546875 467.0979946289062 466.36599560546875Q469.0019926757812 466.36599560546875 470.5919912109374 465.70599560546873Q472.1819897460937 465.04599560546876 473.3549890136718 463.86099633789064Q474.5279882812499 462.6759970703125 475.1779877929687 461.0709978027344Q475.82798730468744 459.46599853515625 475.82798730468744 457.6Q475.82798730468744 455.71000146484374 475.1779877929687 454.124001953125Q474.5279882812499 452.53800244140626 473.34098950195306 451.3670026855469Q472.1539907226562 450.1960029296875 470.57099194335933 449.55000244140626Q468.98799316406246 448.904001953125 467.0979946289062 448.904001953125Q465.23199609374996 448.904001953125 463.6369973144531 449.55000244140626Q462.0419985351562 450.1960029296875 460.8619995117187 451.3670026855469Q459.6820004882812 452.53800244140626 459.0250012207031 454.124001953125Q458.3680019531249 455.71000146484374 458.3680019531249 457.6ZM487.8119853515625 457.98599072265625 493.152 466.0H496.56796875L490.87595800781247 457.98599072265625ZM484.336001953125 449.2V466.0H487.1879736328125V449.2ZM486.02398242187496 451.65797705078126H489.399984375Q490.38198779296874 451.65797705078126 491.1119912109375 451.9929787597656Q491.8419946289062 452.32798046875 492.2469968261719 452.95698364257817Q492.6519990234375 453.58598681640626 492.6519990234375 454.47799169921876Q492.6519990234375 455.36999658203126 492.2469968261719 455.99899975585936Q491.8419946289062 456.6280029296875 491.1119912109375 456.9630046386719Q490.38198779296874 457.29800634765627 489.399984375 457.29800634765627H486.02398242187496V459.6439873046875H489.5259799804687Q491.36797265625 459.6439873046875 492.71497045898434 458.99698852539063Q494.06196826171873 458.34998974609374 494.81096850585936 457.1679912109375Q495.55996875 455.98599267578123 495.55996875 454.42199365234376Q495.55996875 452.8339946289062 494.81096850585936 451.66399609375003Q494.06196826171873 450.4939975585938 492.71497045898434 449.8469987792969Q491.36797265625 449.2 489.5259799804687 449.2H486.02398242187496ZM502.69600195312495 451.80597607421873H507.12799804687495V466.0H509.97996972656244V451.80597607421873H514.4259653320312V449.2H502.69600195312495ZM523.0619721679687 457.6Q523.0619721679687 455.871994140625 523.7989753417969 454.5239892578125Q524.5359785156251 453.175984375 525.8219838867187 452.3959814453125Q527.1079892578125 451.615978515625 528.7779946289063 451.615978515625Q530.472 451.615978515625 531.7530051269531 452.3959814453125Q533.0340102539062 453.175984375 533.7570139160157 454.5239892578125Q534.4800175781251 455.871994140625 534.4800175781251 457.6Q534.4800175781251 459.328005859375 533.7500141601563 460.6760107421875Q533.0200107421875 462.024015625 531.7390056152344 462.8040185546875Q530.4580004882813 463.584021484375 528.7779946289063 463.584021484375Q527.1079892578125 463.584021484375 525.8219838867187 462.8040185546875Q524.5359785156251 462.024015625 523.7989753417969 460.6760107421875Q523.0619721679687 459.328005859375 523.0619721679687 457.6ZM520.048001953125 457.6Q520.048001953125 459.46599853515625 520.6910017089843 461.0709978027344Q521.3340014648437 462.6759970703125 522.5140004882812 463.86099633789064Q523.6939995117187 465.04599560546876 525.2889982910156 465.70599560546873Q526.8839970703125 466.36599560546875 528.7779946289063 466.36599560546875Q530.6819926757812 466.36599560546875 532.2719912109375 465.70599560546873Q533.8619897460937 465.04599560546876 535.0349890136719 463.86099633789064Q536.20798828125 462.6759970703125 536.8579877929687 461.0709978027344Q537.5079873046875 459.46599853515625 537.5079873046875 457.6Q537.5079873046875 455.71000146484374 536.8579877929687 454.124001953125Q536.20798828125 452.53800244140626 535.0209895019532 451.3670026855469Q533.8339907226563 450.1960029296875 532.2509919433594 449.55000244140626Q530.6679931640625 448.904001953125 528.7779946289063 448.904001953125Q526.91199609375 448.904001953125 525.3169973144531 449.55000244140626Q523.7219985351562 450.1960029296875 522.5419995117188 451.3670026855469Q521.3620004882813 452.53800244140626 520.7050012207031 454.124001953125Q520.048001953125 455.71000146484374 520.048001953125 457.6ZM546.016001953125 449.2V466.0H548.9099721679688V449.2ZM551.44798828125 466.0Q554.0079843750001 466.0 555.9529826660157 464.95799951171875Q557.8979809570313 463.9159990234375 558.9919804687501 462.0319990234375Q560.0859799804688 460.1479990234375 560.0859799804688 457.6Q560.0859799804688 455.0520009765625 558.9919804687501 453.1680009765625Q557.8979809570313 451.2840009765625 555.9529826660157 450.24200048828123Q554.0079843750001 449.2 551.44798828125 449.2H547.7739799804688V451.86997802734373H551.3779907226562Q552.6119970703126 451.86997802734373 553.6760009765626 452.2299809570312Q554.7400048828125 452.58998388671876 555.5240068359376 453.3129875488281Q556.3080087890626 454.0359912109375 556.7430095214845 455.10699487304686Q557.1780102539063 456.17799853515623 557.1780102539063 457.6Q557.1780102539063 459.02200146484375 556.7430095214845 460.09300512695313Q556.3080087890626 461.1640087890625 555.5240068359376 461.88701245117187Q554.7400048828125 462.61001611328123 553.6760009765626 462.9700190429687Q552.6119970703126 463.33002197265625 551.3779907226562 463.33002197265625H547.7739799804688V466.0ZM570.6539721679687 457.6Q570.6539721679687 455.871994140625 571.3909753417969 454.5239892578125Q572.127978515625 453.175984375 573.4139838867188 452.3959814453125Q574.6999892578125 451.615978515625 576.3699946289063 451.615978515625Q578.064 451.615978515625 579.3450051269531 452.3959814453125Q580.6260102539062 453.175984375 581.3490139160156 454.5239892578125Q582.072017578125 455.871994140625 582.072017578125 457.6Q582.072017578125 459.328005859375 581.3420141601563 460.6760107421875Q580.6120107421875 462.024015625 579.3310056152344 462.8040185546875Q578.0500004882813 463.584021484375 576.3699946289063 463.584021484375Q574.6999892578125 463.584021484375 573.4139838867188 462.8040185546875Q572.127978515625 462.024015625 571.3909753417969 460.6760107421875Q570.6539721679687 459.328005859375 570.6539721679687 457.6ZM567.640001953125 457.6Q567.640001953125 459.46599853515625 568.2830017089843 461.0709978027344Q568.9260014648437 462.6759970703125 570.1060004882812 463.86099633789064Q571.2859995117187 465.04599560546876 572.8809982910157 465.70599560546873Q574.4759970703125 466.36599560546875 576.3699946289063 466.36599560546875Q578.2739926757812 466.36599560546875 579.8639912109375 465.70599560546873Q581.4539897460937 465.04599560546876 582.6269890136718 463.86099633789064Q583.79998828125 462.6759970703125 584.4499877929687 461.0709978027344Q585.0999873046875 459.46599853515625 585.0999873046875 457.6Q585.0999873046875 455.71000146484374 584.4499877929687 454.124001953125Q583.79998828125 452.53800244140626 582.612989501953 451.3670026855469Q581.4259907226563 450.1960029296875 579.8429919433594 449.55000244140626Q578.2599931640625 448.904001953125 576.3699946289063 448.904001953125Q574.50399609375 448.904001953125 572.908997314453 449.55000244140626Q571.3139985351562 450.1960029296875 570.1339995117187 451.3670026855469Q568.9540004882813 452.53800244140626 568.2970012207031 454.124001953125Q567.640001953125 455.71000146484374 567.640001953125 457.6ZM605.8800175781249 449.2V460.48604248046877L593.6080019531249 448.36V466.0H596.3899760742187V454.7139575195313L608.6619916992187 466.84V449.2ZM616.480001953125 451.80597607421873H620.911998046875V466.0H623.7639697265626V451.80597607421873H628.2099653320313V449.2H616.480001953125ZM645.967998046875 449.2 642.0439833984375 456.3880205078125 638.14396875 449.2H634.9120019531249L640.615998046875 458.943994140625V466.0H643.49596875V458.919994140625L649.19996484375 449.2ZM657.8059702148438 457.6Q657.8059702148438 455.799994140625 658.61197265625 454.4709890136719Q659.4179750976563 453.1419838867188 660.7219790039062 452.40698022460936Q662.0259829101562 451.6719765625 663.5559873046875 451.6719765625Q664.7559873046876 451.6719765625 665.7169885253907 451.9839765625Q666.6779897460938 452.2959765625 667.4589909667968 452.83897729492185Q668.2399921875 453.38197802734373 668.8019926757812 454.05598046875V450.68200439453125Q667.7599921875 449.816001953125 666.5329914550781 449.360001953125Q665.3059907226562 448.904001953125 663.4579907226563 448.904001953125Q661.607994140625 448.904001953125 660.0139965820313 449.5330021972656Q658.4199990234375 450.16200244140623 657.2330002441406 451.3330021972656Q656.0460014648437 452.504001953125 655.3910017089843 454.09500170898434Q654.736001953125 455.68600146484374 654.736001953125 457.6Q654.736001953125 459.51399853515625 655.3910017089843 461.1049982910156Q656.0460014648437 462.695998046875 657.2330002441406 463.8669978027344Q658.4199990234375 465.03799755859376 660.0139965820313 465.6669978027344Q661.607994140625 466.295998046875 663.4579907226563 466.295998046875Q665.3059907226562 466.295998046875 666.5329914550781 465.839998046875Q667.7599921875 465.383998046875 668.8019926757812 464.51799560546874V461.14401953125Q668.2399921875 461.81802197265625 667.4589909667968 462.3610227050781Q666.6779897460938 462.9040234375 665.7169885253907 463.2160234375Q664.7559873046876 463.5280234375 663.5559873046875 463.5280234375Q662.0259829101562 463.5280234375 660.7219790039062 462.79301977539063Q659.4179750976563 462.05801611328127 658.61197265625 460.71701098632815Q657.8059702148438 459.376005859375 657.8059702148438 457.6ZM676.8659926757813 451.80597607421873H684.5460161132813L676.120001953125 466.0H688.5659780273438V463.45002197265626H680.7179604492188L689.19997265625 449.2H676.8659926757813ZM709.512017578125 449.2V460.48604248046877L697.240001953125 448.36V466.0H700.0219760742187V454.7139575195313L712.2939916992187 466.84V449.2ZM723.5499799804687 466.0H732.0219799804687V463.50602001953126H723.5499799804687ZM723.5499799804687 451.6939799804687H732.0219799804687V449.2H723.5499799804687ZM723.5499799804687 458.231986328125H731.5419799804688V455.76600537109374H723.5499799804687ZM721.792001953125 449.2V466.0H724.5739760742188V449.2ZM754.3660092773438 459.9700094168527Q754.3660092773438 460.6420043945312 754.860005859375 461.14300073242185Q755.3540024414062 461.6439970703125 756.0599517903646 461.6439970703125Q756.7979897460938 461.6439970703125 757.279986328125 461.1413854041466Q757.7619829101562 460.6387737379808 757.7619829101562 459.96862484975964Q757.7619829101562 459.2680146484375 757.279986328125 458.77901831054686Q756.7979897460938 458.29002197265623 756.0599517903646 458.29002197265623Q755.3540024414062 458.29002197265623 754.860005859375 458.7787455927861Q754.3660092773438 459.267469212916 754.3660092773438 459.9700094168527ZM780.3520019531251 449.2V466.0H783.2599716796875V449.2ZM789.495984375 449.2 782.4119794921876 457.1479990234375 789.7999863281251 466.0H793.2859526367188L785.8359462890626 457.072L792.9259526367188 449.2ZM804.4439853515626 457.98599072265625 809.784 466.0H813.19996875L807.5079580078126 457.98599072265625ZM800.968001953125 449.2V466.0H803.8199736328125V449.2ZM802.655982421875 451.65797705078126H806.0319843750001Q807.0139877929688 451.65797705078126 807.7439912109376 451.9929787597656Q808.4739946289063 452.32798046875 808.8789968261719 452.95698364257817Q809.2839990234376 453.58598681640626 809.2839990234376 454.47799169921876Q809.2839990234376 455.36999658203126 808.8789968261719 455.99899975585936Q808.4739946289063 456.6280029296875 807.7439912109376 456.9630046386719Q807.0139877929688 457.29800634765627 806.0319843750001 457.29800634765627H802.655982421875V459.6439873046875H806.1579799804688Q807.9999726562501 459.6439873046875 809.3469704589844 458.99698852539063Q810.6939682617187 458.34998974609374 811.4429685058594 457.1679912109375Q812.19196875 455.98599267578123 812.19196875 454.42199365234376Q812.19196875 452.8339946289062 811.4429685058594 451.66399609375003Q810.6939682617187 450.4939975585938 809.3469704589844 449.8469987792969Q807.9999726562501 449.2 806.1579799804688 449.2H802.655982421875ZM823.0359873046875 461.67397509765624H831.9159873046875L831.3779809570312 459.2919912109375H823.5739936523438ZM827.4279873046875 453.95796630859377 830.0979946289062 460.1799853515625 830.1499995117188 460.8839775390625 832.4300053710938 466.0H835.64797265625L827.4279873046875 448.2760029296875L819.208001953125 466.0H822.4119697265625L824.7399755859375 460.7399775390625L824.7779809570312 460.111984375ZM843.328001953125 449.2V466.0H846.2359716796874V449.2ZM852.4719843749999 449.2 845.3879794921875 457.1479990234375 852.775986328125 466.0H856.2619526367187L848.8119462890625 457.072L855.9019526367186 449.2ZM864.7979721679687 457.6Q864.7979721679687 455.871994140625 865.5349753417969 454.5239892578125Q866.271978515625 453.175984375 867.5579838867188 452.3959814453125Q868.8439892578125 451.615978515625 870.5139946289063 451.615978515625Q872.208 451.615978515625 873.4890051269531 452.3959814453125Q874.7700102539062 453.175984375 875.4930139160156 454.5239892578125Q876.216017578125 455.871994140625 876.216017578125 457.6Q876.216017578125 459.328005859375 875.4860141601563 460.6760107421875Q874.7560107421875 462.024015625 873.4750056152344 462.8040185546875Q872.1940004882813 463.584021484375 870.5139946289063 463.584021484375Q868.8439892578125 463.584021484375 867.5579838867188 462.8040185546875Q866.271978515625 462.024015625 865.5349753417969 460.6760107421875Q864.7979721679687 459.328005859375 864.7979721679687 457.6ZM861.784001953125 457.6Q861.784001953125 459.46599853515625 862.4270017089843 461.0709978027344Q863.0700014648437 462.6759970703125 864.2500004882812 463.86099633789064Q865.4299995117187 465.04599560546876 867.0249982910157 465.70599560546873Q868.6199970703125 466.36599560546875 870.5139946289063 466.36599560546875Q872.4179926757812 466.36599560546875 874.0079912109375 465.70599560546873Q875.5979897460937 465.04599560546876 876.7709890136719 463.86099633789064Q877.94398828125 462.6759970703125 878.5939877929687 461.0709978027344Q879.2439873046875 459.46599853515625 879.2439873046875 457.6Q879.2439873046875 455.71000146484374 878.5939877929687 454.124001953125Q877.94398828125 452.53800244140626 876.7569895019531 451.3670026855469Q875.5699907226563 450.1960029296875 873.9869919433594 449.55000244140626Q872.4039931640625 448.904001953125 870.5139946289063 448.904001953125Q868.64799609375 448.904001953125 867.052997314453 449.55000244140626Q865.4579985351562 450.1960029296875 864.2779995117187 451.3670026855469Q863.0980004882813 452.53800244140626 862.4410012207031 454.124001953125Q861.784001953125 455.71000146484374 861.784001953125 457.6ZM873.8139799804687 443.79400439453127 871.6219936523437 442.7220083007812 868.0219936523438 446.56200830078126 869.4939799804688 447.39400439453124ZM902.2499926757813 460.4400390625 897.4119873046875 448.36 892.6419829101562 460.4400390625 888.6539663085938 449.2H885.352001953125L892.2179926757813 466.895998046875L897.4119873046875 455.01595703125L902.5919824218751 466.895998046875L909.47197265625 449.2H906.1700083007812Z"/>
</svg>
